<svg xmlns="http://www.w3.org/2000/svg" width="36.35" height="36.417" viewBox="0 0 36.35 36.417">
  <path id="Icon_feather-phone" data-name="Icon feather-phone" d="M36.515,28.017v5.03A3.353,3.353,0,0,1,32.859,36.4a33.182,33.182,0,0,1-14.47-5.148,32.7,32.7,0,0,1-10.06-10.06A33.182,33.182,0,0,1,3.181,6.655,3.353,3.353,0,0,1,6.518,3h5.03A3.353,3.353,0,0,1,14.9,5.884,21.529,21.529,0,0,0,16.075,10.6a3.353,3.353,0,0,1-.755,3.538l-2.129,2.129a26.827,26.827,0,0,0,10.06,10.06l2.129-2.129a3.353,3.353,0,0,1,3.538-.755,21.529,21.529,0,0,0,4.712,1.174,3.353,3.353,0,0,1,2.884,3.4Z" transform="translate(-1.667 -1.5)" fill="none" stroke="#000013" stroke-linecap="round" stroke-linejoin="round" stroke-width="3"/>
</svg>
